<svg fill="none" height="24" viewBox="0 0 24 24" width="24" xmlns="http://www.w3.org/2000/svg"><path clip-rule="evenodd" d="m5.02685 3.49955c-.13807 0-.25.11193-.25.25v1.80859h3.24951c.41421 0 .75.33579.75.75s-.33579.75-.75.75h-3.24951v2.2946h3.24951c.41421 0 .75.33578.75.74996 0 .4142-.33579.75-.75.75h-3.24951v2.2946h3.24951c.41421 0 .75.3358.75.75s-.33579.75-.75.75h-3.24951v2.2946h3.24951c.41421 0 .75.3358.75.75s-.33579.75-.75.75h-3.24951v2.0582h5.81545v-11.94094c0-.81699.5653-1.52527 1.3619-1.70643l.6615-.15044v-2.95274c0-.13807-.1119-.25-.25-.25zm9.08885 2.86162v-2.61162c0-.9665-.7835-1.75-1.75-1.75h-7.33885c-.9665 0-1.75.7835-1.75 1.75v16.75055h-.52697c-.41422 0-.75.3358-.75.75s.33578.75.75.75h18.50002c.4142 0 .75-.3358.75-.75s-.3358-.75-.75-.75h-.5273v-13.44878c0-1.12311-1.0429-1.95548-2.138-1.70643zm5.1069 14.13893v-2.0582h-3.2495c-.4142 0-.75-.3358-.75-.75s.3358-.75.75-.75h3.2495v-2.2946h-3.2495c-.4142 0-.75-.3358-.75-.75s.3358-.75.75-.75h3.2495v-2.2946h-3.2495c-.4142 0-.75-.3358-.75-.75 0-.41418.3358-.74996.75-.74996h3.2495v-2.30142c0-.16044-.1489-.27935-.3054-.24378l-6.6304 1.50784c-.1138.02588-.1945.12706-.1945.24378v11.94094z" fill="currentColor" fill-rule="evenodd"/></svg>
