<svg fill="none" height="24" viewBox="0 0 24 24" width="24" xmlns="http://www.w3.org/2000/svg"><path clip-rule="evenodd" d="m9.66726 3.5c-1.95053 0-3.53174 1.58121-3.53174 3.53174 0 1.95052 1.58121 3.53176 3.53174 3.53176 1.95054 0 3.53174-1.58124 3.53174-3.53176 0-1.95053-1.5812-3.53174-3.53174-3.53174zm-5.03174 3.53174c0-2.77895 2.25279-5.03174 5.03174-5.03174 2.77894 0 5.03174 2.25279 5.03174 5.03174s-2.2528 5.03176-5.03174 5.03176c-2.77895 0-5.03174-2.25281-5.03174-5.03176zm10.79998-2.56421c0-.41421.3358-.75.75-.75 2.2813 0 4.1306 1.84934 4.1306 4.13063 0 2.28124-1.8493 4.13064-4.1306 4.13064-.2831 0-.5604-.0286-.8287-.0833-.4059-.0828-.6678-.4789-.5851-.8847.0828-.4059.4789-.6678.8847-.5851.1703.0347.3472.0531.5291.0531 1.4529 0 2.6306-1.17779 2.6306-2.63064 0-1.45286-1.1777-2.63063-2.6306-2.63063-.4142 0-.75-.33579-.75-.75zm1.0018 9.34057c0-.4142.3358-.75.75-.75 2.6233 0 4.75 2.1267 4.75 4.75v.7245c0 .9665-.7835 1.75-1.75 1.75h-.8776c-.4143 0-.75-.3357-.75-.75 0-.4142.3357-.75.75-.75h.8776c.138 0 .25-.1119.25-.25v-.7245c0-1.7949-1.4551-3.25-3.25-3.25-.4142 0-.75-.3358-.75-.75zm-14.37502 5.1915c0-3.1756 2.57436-5.75 5.75-5.75h3.71292c3.1756 0 5.75 2.5744 5.75 5.75v.2504c0 1.5188-1.2312 2.7501-2.75 2.7501h-9.71292c-1.51878 0-2.75-1.2313-2.75-2.75zm5.75-4.25c-2.34721 0-4.25 1.9028-4.25 4.25v.2505c0 .6903.55964 1.25 1.25 1.25h9.71292c.6903 0 1.25-.5597 1.25-1.2501v-.2504c0-2.3472-1.9028-4.25-4.25-4.25z" fill="currentColor" fill-rule="evenodd"/></svg>
